<?xml version="1.0" standalone="no"?><!DOCTYPE svg PUBLIC "-//W3C//DTD SVG 1.1//EN" "http://www.w3.org/Graphics/SVG/1.1/DTD/svg11.dtd"><svg t="1507793124552" class="icon" style="" viewBox="0 0 1024 1024" version="1.1" xmlns="http://www.w3.org/2000/svg" p-id="2738" xmlns:xlink="http://www.w3.org/1999/xlink" width="200" height="200"><defs><style type="text/css"></style></defs><path d="M256.683 802.792c-10.476 0-19.155-8.68-19.155-19.155v-55.67c0-111.038 66.742-209.505 170.3-250.81l14.067-5.686-11.972-9.277c-38.608-30.528-61.056-76.02-61.056-124.807 0-87.393 71.23-158.627 158.626-158.627 87.394 0 158.627 71.232 158.627 158.627 0 48.786-22.147 94.28-61.056 124.807l-11.972 9.277 14.067 5.686c103.558 41.304 170.3 139.772 170.3 250.81v55.67c0 10.475-8.68 19.155-19.155 19.155h-501.62z m251.108-306.776c-127.8 0-231.954 103.856-231.954 231.955v36.514h463.61v-36.514c0-128.1-103.856-231.955-231.656-231.955z m-0.298-278.944c-66.443 0-120.317 53.872-120.317 120.315s53.874 120.317 120.317 120.317 120.318-53.874 120.318-120.317-53.874-120.315-120.318-120.315z" p-id="2739" fill="#ffffff"></path><path d="M145.044 718.991c-10.475 0-19.155-8.68-19.155-19.155v-43.098c0-80.51 44.296-153.537 115.23-190.35l9.875-5.09-7.482-8.379c-21.849-24.244-34.119-55.37-34.119-87.694 0-60.758 41.303-113.134 99.965-127.2 1.496-0.3 2.993-0.599 4.489-0.599 8.978 0 16.76 5.986 18.855 14.665 2.395 10.175-3.89 20.652-14.067 23.046-41.601 10.176-70.634 47.288-70.634 90.09 0 36.514 21.55 69.436 54.77 84.4 2.395 0.898 4.191 2.394 5.986 4.19l0.899 0.896c0.898 0.899 1.496 2.395 2.394 4.19l0.299 0.598c0.299 0.899 0.597 1.496 0.898 2.095 0 0.299 0.3 0.898 0.598 1.197v2.395c0.299 1.796 0.299 2.993 0.299 4.49 0 0.298-0.3 0.898-0.3 1.196l-0.298 0.899c-0.299 0.898-0.299 1.496-0.299 2.394 0 0.3 0 0.899-0.298 1.198-2.695 5.985-8.083 10.174-14.965 11.073h-0.897c-78.116 19.753-132.886 89.789-132.886 170.598v43.099c0 10.475-8.68 18.856-19.157 18.856zM870.239 718.991c-10.476 0-19.155-8.68-19.155-19.155v-43.098c0-80.809-54.773-150.845-132.889-170.598H717c-6.884-0.898-12.27-5.087-14.965-11.073 0-0.299 0-0.899-0.299-1.197 0-0.899-0.298-1.497-0.298-2.395l-0.3-0.898c0-0.598-0.298-0.899-0.298-1.497 0-1.196 0-2.393 0.299-4.19v-0.299-2.095c0.299-0.3 0.299-0.899 0.597-1.497l0.6-1.197 0.598-0.898c0.898-2.096 1.795-3.293 2.694-4.19l0.898-0.897c1.495-1.496 3.591-2.993 5.986-4.19 33.22-14.965 54.77-47.887 54.77-84.4 0-41.604-28.134-78.417-68.239-89.191-10.176-2.695-16.46-13.47-13.47-23.645 2.395-8.38 9.877-14.366 18.557-14.366 1.795 0 3.292 0.299 5.087 0.598 56.866 15.263 96.672 67.341 96.672 126.302 0 32.325-11.971 63.45-34.119 87.695l-7.482 8.378 9.876 5.09c71.233 36.813 115.23 109.841 115.23 190.35v43.1c0.001 11.072-8.678 19.453-19.155 19.453z" p-id="2740" fill="#ffffff"></path></svg>