<?xml version="1.0" standalone="no"?><!DOCTYPE svg PUBLIC "-//W3C//DTD SVG 1.1//EN" "http://www.w3.org/Graphics/SVG/1.1/DTD/svg11.dtd"><svg t="1507793756184" class="icon" style="" viewBox="0 0 1024 1024" version="1.1" xmlns="http://www.w3.org/2000/svg" p-id="12684" xmlns:xlink="http://www.w3.org/1999/xlink" width="200" height="200"><defs><style type="text/css"></style></defs><path d="M512.886 11.507c-274.05 0-496.24 222.178-496.24 496.24s222.19 496.24 496.24 496.24c274.063 0 496.253-222.178 496.253-496.24s-222.19-496.24-496.253-496.24zM825.792 759.923c0 6.722-8.634 12.173-19.259 12.173l-587.283 0c-10.649 0-19.27-5.45-19.27-12.173l0-93.685c0-6.71 8.622-12.158 19.27-12.158l221.549 0c15.19-23.69 24.143-51.761 24.143-82.006 0-50.538-24.683-95.199-62.533-122.953-25.956-27.314-42.053-64.081-42.053-104.75 0-84.236 68.287-152.521 152.531-152.521 84.246 0 152.521 68.286 152.521 152.521 0 41.072-16.414 78.13-42.849 105.533-37.259 27.805-61.476 72.101-61.476 122.171 0 30.247 8.935 58.317 24.169 82.006l221.286 0c10.626 0 19.259 5.45 19.259 12.158l0 93.685z" p-id="12685" fill="#ffffff"></path></svg>